<?xml version="1.0" encoding="UTF-8"?>
<svg xmlns="http://www.w3.org/2000/svg" viewBox="0 0 1400 1560" font-family="'Segoe UI', Roboto, Helvetica, Arial, sans-serif">
  <defs>
    <marker id="arr" viewBox="0 0 10 10" refX="9" refY="5" markerWidth="7" markerHeight="7" orient="auto-start-reverse">
      <path d="M 0 0 L 10 5 L 0 10 z" fill="#334155"/>
    </marker>
    <marker id="arrLoop" viewBox="0 0 10 10" refX="9" refY="5" markerWidth="7" markerHeight="7" orient="auto-start-reverse">
      <path d="M 0 0 L 10 5 L 0 10 z" fill="#0f766e"/>
    </marker>
  </defs>

  <style>
    .action { fill: #ffffff; stroke: #334155; stroke-width: 1.4; }
    .action-hub { fill: #dbeafe; stroke: #1e40af; stroke-width: 1.8; }
    .decision { fill: #fef9c3; stroke: #b45309; stroke-width: 1.5; }
    .merge { fill: #f1f5f9; stroke: #64748b; stroke-width: 1.2; }
    .flow { stroke: #334155; stroke-width: 1.6; fill: none; }
    .flowLoop { stroke: #0f766e; stroke-width: 1.6; fill: none; stroke-dasharray: 6 4; }
    .t { font-size: 12px; fill: #0f172a; }
    .tb { font-size: 12px; font-weight: 700; fill: #0f172a; }
    .td { font-size: 11.5px; font-weight: 600; fill: #78350f; }
    .guard { font-size: 10.5px; fill: #334155; font-style: italic; }
    .guard-bg { fill: #f8fafc; }
  </style>

  <!-- Fondo -->
  <rect width="1400" height="1560" fill="#f8fafc"/>

  <!-- Título -->
  <text x="700" y="36" text-anchor="middle" font-size="22" font-weight="700" fill="#0f172a">Diagrama de actividad — Cliente de la aplicación de kcal</text>
  <text x="700" y="58" text-anchor="middle" font-size="12" fill="#64748b">Notación UML · nodo inicial, acciones, decisiones, merges y nodo final</text>

  <!-- ============================== ACCESO ============================== -->
  <!-- Nodo inicial -->
  <circle cx="700" cy="90" r="9" fill="#0f172a"/>
  <line x1="700" y1="99" x2="700" y2="121" class="flow" marker-end="url(#arr)"/>

  <!-- Abrir aplicación -->
  <rect x="620" y="123" width="160" height="40" rx="20" ry="20" class="action"/>
  <text x="700" y="148" text-anchor="middle" class="t">Abrir aplicación</text>
  <line x1="700" y1="163" x2="700" y2="187" class="flow" marker-end="url(#arr)"/>

  <!-- Decisión: ¿Tiene cuenta? -->
  <polygon points="700,189 790,235 700,281 610,235" class="decision"/>
  <text x="700" y="230" text-anchor="middle" class="td">¿Tiene cuenta</text>
  <text x="700" y="246" text-anchor="middle" class="td">de usuario?</text>

  <!-- Guardas -->
  <path d="M 610 235 L 500 235 L 500 277" class="flow" marker-end="url(#arr)"/>
  <rect x="515" y="222" width="40" height="14" class="guard-bg"/>
  <text x="535" y="233" text-anchor="middle" class="guard">[no]</text>

  <path d="M 790 235 L 900 235 L 900 277" class="flow" marker-end="url(#arr)"/>
  <rect x="845" y="222" width="40" height="14" class="guard-bg"/>
  <text x="865" y="233" text-anchor="middle" class="guard">[sí]</text>

  <!-- Registrarse -->
  <rect x="420" y="279" width="160" height="40" rx="20" ry="20" class="action"/>
  <text x="500" y="304" text-anchor="middle" class="t">Registrarse</text>
  <line x1="500" y1="319" x2="500" y2="341" class="flow" marker-end="url(#arr)"/>

  <!-- Configurar perfil -->
  <rect x="405" y="343" width="190" height="44" rx="22" ry="22" class="action"/>
  <text x="500" y="363" text-anchor="middle" class="t">Configurar perfil inicial</text>
  <text x="500" y="378" text-anchor="middle" font-size="10" fill="#64748b">(edad, peso, altura, objetivo)</text>

  <!-- Iniciar sesión -->
  <rect x="820" y="279" width="160" height="40" rx="20" ry="20" class="action"/>
  <text x="900" y="304" text-anchor="middle" class="t">Iniciar sesión</text>

  <!-- Merge de autenticación -->
  <polygon points="700,405 720,425 700,445 680,425" class="merge"/>
  <path d="M 500 387 L 500 425 L 680 425" class="flow" marker-end="url(#arr)"/>
  <path d="M 900 319 L 900 425 L 720 425" class="flow" marker-end="url(#arr)"/>

  <line x1="700" y1="445" x2="700" y2="464" class="flow" marker-end="url(#arr)"/>

  <!-- Mostrar dashboard (hub) -->
  <rect x="580" y="466" width="240" height="50" rx="25" ry="25" class="action-hub"/>
  <text x="700" y="488" text-anchor="middle" font-size="13" font-weight="700" fill="#1e3a8a">Mostrar dashboard</text>
  <text x="700" y="504" text-anchor="middle" font-size="10.5" fill="#1e3a8a">kcal día / objetivo / restantes</text>

  <line x1="700" y1="516" x2="700" y2="540" class="flow" marker-end="url(#arr)"/>

  <!-- Merge de retorno (bucle de acciones) -->
  <polygon points="700,542 723,562 700,582 677,562" class="merge"/>
  <text x="668" y="568" text-anchor="end" font-size="10" fill="#64748b" font-style="italic">retorno de acciones</text>

  <line x1="700" y1="582" x2="700" y2="602" class="flow" marker-end="url(#arr)"/>

  <!-- ============================== DECISIÓN PRINCIPAL ============================== -->
  <polygon points="700,604 850,660 700,716 550,660" class="decision"/>
  <text x="700" y="656" text-anchor="middle" font-size="13" font-weight="700" fill="#78350f">¿Qué acción</text>
  <text x="700" y="672" text-anchor="middle" font-size="13" font-weight="700" fill="#78350f">desea realizar?</text>

  <!-- Fan out a 5 ramas con guardas -->
  <!-- Guarda añadir comida -->
  <path d="M 595 643 C 400 643, 300 690, 180 720" class="flow" marker-end="url(#arr)"/>
  <rect x="370" y="638" width="120" height="15" class="guard-bg"/>
  <text x="430" y="650" text-anchor="middle" class="guard">[añadir comida]</text>

  <!-- Guarda ver registro -->
  <path d="M 630 703 C 560 720, 500 720, 470 740" class="flow" marker-end="url(#arr)"/>
  <rect x="503" y="710" width="110" height="15" class="guard-bg"/>
  <text x="558" y="722" text-anchor="middle" class="guard">[ver registro]</text>

  <!-- Guarda ver historial -->
  <path d="M 700 716 L 700 740" class="flow" marker-end="url(#arr)"/>
  <rect x="708" y="720" width="95" height="15" class="guard-bg"/>
  <text x="755" y="732" text-anchor="middle" class="guard">[ver historial]</text>

  <!-- Guarda editar cuenta -->
  <path d="M 770 703 C 840 720, 900 720, 930 740" class="flow" marker-end="url(#arr)"/>
  <rect x="790" y="710" width="110" height="15" class="guard-bg"/>
  <text x="845" y="722" text-anchor="middle" class="guard">[editar cuenta]</text>

  <!-- Guarda cerrar sesión -->
  <path d="M 805 643 C 1000 643, 1100 690, 1220 720" class="flow" marker-end="url(#arr)"/>
  <rect x="910" y="638" width="125" height="15" class="guard-bg"/>
  <text x="972" y="650" text-anchor="middle" class="guard">[cerrar sesión]</text>

  <!-- ============================== RAMA A: AÑADIR COMIDA ============================== -->
  <rect x="20" y="706" width="320" height="16" class="guard-bg"/>
  <text x="180" y="701" text-anchor="middle" font-size="11" font-weight="700" fill="#059669">RAMA A · AÑADIR COMIDA</text>

  <!-- Buscar alimento -->
  <rect x="80" y="722" width="200" height="42" rx="21" ry="21" class="action"/>
  <text x="180" y="748" text-anchor="middle" class="t">Buscar alimento en API</text>
  <line x1="180" y1="764" x2="180" y2="782" class="flow" marker-end="url(#arr)"/>

  <!-- ¿Encontrado? -->
  <polygon points="180,784 255,828 180,872 105,828" class="decision"/>
  <text x="180" y="824" text-anchor="middle" class="td">¿Encontrado</text>
  <text x="180" y="840" text-anchor="middle" class="td">en la API?</text>

  <!-- [no] path -->
  <path d="M 105 828 L 55 828 L 55 902" class="flow" marker-end="url(#arr)"/>
  <rect x="55" y="820" width="40" height="15" class="guard-bg"/>
  <text x="75" y="832" text-anchor="middle" class="guard">[no]</text>

  <rect x="10" y="904" width="100" height="40" rx="20" ry="20" class="action"/>
  <text x="60" y="920" text-anchor="middle" font-size="11" class="t">Notificar</text>
  <text x="60" y="934" text-anchor="middle" font-size="10" fill="#64748b">no encontrado</text>

  <!-- [sí] path -->
  <path d="M 255 828 L 305 828 L 305 902" class="flow" marker-end="url(#arr)"/>
  <rect x="265" y="820" width="40" height="15" class="guard-bg"/>
  <text x="285" y="832" text-anchor="middle" class="guard">[sí]</text>

  <rect x="225" y="904" width="160" height="40" rx="20" ry="20" class="action"/>
  <text x="305" y="929" text-anchor="middle" class="t">Seleccionar alimento</text>
  <line x1="305" y1="944" x2="305" y2="964" class="flow" marker-end="url(#arr)"/>

  <rect x="225" y="966" width="160" height="40" rx="20" ry="20" class="action"/>
  <text x="305" y="991" text-anchor="middle" class="t">Indicar cantidad (g)</text>
  <line x1="305" y1="1006" x2="305" y2="1026" class="flow" marker-end="url(#arr)"/>

  <rect x="225" y="1028" width="160" height="40" rx="20" ry="20" class="action"/>
  <text x="305" y="1053" text-anchor="middle" class="t">Clasificar ingesta</text>
  <line x1="305" y1="1068" x2="305" y2="1088" class="flow" marker-end="url(#arr)"/>

  <rect x="215" y="1090" width="180" height="44" rx="22" ry="22" class="action"/>
  <text x="305" y="1109" text-anchor="middle" class="t">Guardar comida</text>
  <text x="305" y="1124" text-anchor="middle" font-size="10" fill="#64748b">ORMLite + Firebase</text>

  <!-- Merge rama A -->
  <polygon points="180,1175 200,1195 180,1215 160,1195" class="merge"/>
  <path d="M 60 944 L 60 1195 L 160 1195" class="flow" marker-end="url(#arr)"/>
  <path d="M 305 1134 L 305 1195 L 200 1195" class="flow" marker-end="url(#arr)"/>
  <line x1="180" y1="1215" x2="180" y2="1258" class="flow" marker-end="url(#arr)"/>

  <!-- ============================== RAMA B: REGISTRO DIARIO ============================== -->
  <rect x="360" y="706" width="220" height="16" class="guard-bg"/>
  <text x="470" y="701" text-anchor="middle" font-size="11" font-weight="700" fill="#d97706">RAMA B · REGISTRO DIARIO</text>

  <rect x="370" y="742" width="200" height="42" rx="21" ry="21" class="action"/>
  <text x="470" y="768" text-anchor="middle" class="t">Ver comidas del día</text>
  <line x1="470" y1="784" x2="470" y2="802" class="flow" marker-end="url(#arr)"/>

  <polygon points="470,804 560,850 470,896 380,850" class="decision"/>
  <text x="470" y="846" text-anchor="middle" class="td">¿Acción</text>
  <text x="470" y="862" text-anchor="middle" class="td">sobre comida?</text>

  <!-- [editar] -->
  <path d="M 380 850 L 330 850 L 330 930" class="flow" marker-end="url(#arr)"/>
  <rect x="325" y="842" width="60" height="15" class="guard-bg"/>
  <text x="355" y="854" text-anchor="middle" class="guard">[editar]</text>

  <rect x="275" y="932" width="110" height="42" rx="21" ry="21" class="action"/>
  <text x="330" y="950" text-anchor="middle" font-size="11" class="t">Editar</text>
  <text x="330" y="964" text-anchor="middle" font-size="10" fill="#64748b">cantidad</text>

  <!-- [eliminar] -->
  <path d="M 560 850 L 610 850 L 610 930" class="flow" marker-end="url(#arr)"/>
  <rect x="555" y="842" width="75" height="15" class="guard-bg"/>
  <text x="593" y="854" text-anchor="middle" class="guard">[eliminar]</text>

  <rect x="555" y="932" width="110" height="42" rx="21" ry="21" class="action"/>
  <text x="610" y="950" text-anchor="middle" font-size="11" class="t">Eliminar</text>
  <text x="610" y="964" text-anchor="middle" font-size="10" fill="#64748b">comida</text>

  <!-- [ninguna] -->
  <path d="M 470 896 L 470 1030" class="flow"/>
  <rect x="445" y="905" width="70" height="15" class="guard-bg"/>
  <text x="480" y="917" text-anchor="middle" class="guard">[ninguna]</text>

  <!-- Merge rama B -->
  <polygon points="470,1032 490,1052 470,1072 450,1052" class="merge"/>
  <path d="M 330 974 L 330 1052 L 450 1052" class="flow" marker-end="url(#arr)"/>
  <path d="M 610 974 L 610 1052 L 490 1052" class="flow" marker-end="url(#arr)"/>
  <line x1="470" y1="1072" x2="470" y2="1258" class="flow" marker-end="url(#arr)"/>

  <!-- ============================== RAMA C: HISTORIAL ============================== -->
  <rect x="640" y="706" width="180" height="16" class="guard-bg"/>
  <text x="730" y="701" text-anchor="middle" font-size="11" font-weight="700" fill="#7c3aed">RAMA C · HISTORIAL</text>

  <polygon points="730,742 820,788 730,834 640,788" class="decision"/>
  <text x="730" y="784" text-anchor="middle" class="td">¿Tipo de</text>
  <text x="730" y="800" text-anchor="middle" class="td">consulta?</text>

  <!-- [día] -->
  <path d="M 640 788 L 620 788 L 620 860" class="flow" marker-end="url(#arr)"/>
  <rect x="580" y="780" width="45" height="15" class="guard-bg"/>
  <text x="602" y="792" text-anchor="middle" class="guard">[día]</text>

  <rect x="560" y="862" width="120" height="42" rx="21" ry="21" class="action"/>
  <text x="620" y="880" text-anchor="middle" font-size="11" class="t">Seleccionar</text>
  <text x="620" y="894" text-anchor="middle" font-size="10" fill="#64748b">fecha</text>
  <line x1="620" y1="904" x2="620" y2="924" class="flow" marker-end="url(#arr)"/>

  <rect x="560" y="926" width="120" height="42" rx="21" ry="21" class="action"/>
  <text x="620" y="952" text-anchor="middle" class="t">Ver día</text>

  <!-- [estadísticas] -->
  <path d="M 820 788 L 840 788 L 840 860" class="flow" marker-end="url(#arr)"/>
  <rect x="830" y="780" width="90" height="15" class="guard-bg"/>
  <text x="875" y="792" text-anchor="middle" class="guard">[estadísticas]</text>

  <rect x="780" y="862" width="120" height="42" rx="21" ry="21" class="action"/>
  <text x="840" y="880" text-anchor="middle" font-size="11" class="t">Ver gráfica</text>
  <text x="840" y="894" text-anchor="middle" font-size="10" fill="#64748b">semana / mes</text>

  <!-- Merge rama C -->
  <polygon points="730,1032 750,1052 730,1072 710,1052" class="merge"/>
  <path d="M 620 968 L 620 1052 L 710 1052" class="flow" marker-end="url(#arr)"/>
  <path d="M 840 904 L 840 1052 L 750 1052" class="flow" marker-end="url(#arr)"/>
  <line x1="730" y1="1072" x2="730" y2="1258" class="flow" marker-end="url(#arr)"/>

  <!-- ============================== RAMA D: CUENTA ============================== -->
  <rect x="910" y="706" width="180" height="16" class="guard-bg"/>
  <text x="1000" y="701" text-anchor="middle" font-size="11" font-weight="700" fill="#e11d48">RAMA D · CUENTA</text>

  <polygon points="1000,742 1090,788 1000,834 910,788" class="decision"/>
  <text x="1000" y="784" text-anchor="middle" class="td">¿Qué</text>
  <text x="1000" y="800" text-anchor="middle" class="td">editar?</text>

  <!-- [perfil] -->
  <path d="M 910 788 L 890 788 L 890 860" class="flow" marker-end="url(#arr)"/>
  <rect x="850" y="780" width="55" height="15" class="guard-bg"/>
  <text x="877" y="792" text-anchor="middle" class="guard">[perfil]</text>

  <rect x="830" y="862" width="120" height="42" rx="21" ry="21" class="action"/>
  <text x="890" y="880" text-anchor="middle" font-size="11" class="t">Editar datos</text>
  <text x="890" y="894" text-anchor="middle" font-size="10" fill="#64748b">personales</text>

  <!-- [objetivo] -->
  <path d="M 1090 788 L 1110 788 L 1110 860" class="flow" marker-end="url(#arr)"/>
  <rect x="1100" y="780" width="80" height="15" class="guard-bg"/>
  <text x="1140" y="792" text-anchor="middle" class="guard">[objetivo]</text>

  <rect x="1050" y="862" width="120" height="42" rx="21" ry="21" class="action"/>
  <text x="1110" y="880" text-anchor="middle" font-size="11" class="t">Modificar</text>
  <text x="1110" y="894" text-anchor="middle" font-size="10" fill="#64748b">objetivo kcal</text>

  <!-- Merge intermedio -->
  <polygon points="1000,960 1020,980 1000,1000 980,980" class="merge"/>
  <path d="M 890 904 L 890 980 L 980 980" class="flow" marker-end="url(#arr)"/>
  <path d="M 1110 904 L 1110 980 L 1020 980" class="flow" marker-end="url(#arr)"/>
  <line x1="1000" y1="1000" x2="1000" y2="1026" class="flow" marker-end="url(#arr)"/>

  <!-- Guardar cambios -->
  <rect x="910" y="1028" width="180" height="42" rx="21" ry="21" class="action"/>
  <text x="1000" y="1046" text-anchor="middle" class="t">Guardar cambios</text>
  <text x="1000" y="1060" text-anchor="middle" font-size="10" fill="#64748b">ORMLite + Firebase</text>
  <line x1="1000" y1="1070" x2="1000" y2="1258" class="flow" marker-end="url(#arr)"/>

  <!-- ============================== RAMA E: CERRAR SESIÓN ============================== -->
  <rect x="1170" y="706" width="190" height="16" class="guard-bg"/>
  <text x="1265" y="701" text-anchor="middle" font-size="11" font-weight="700" fill="#0f172a">RAMA E · CERRAR SESIÓN</text>

  <rect x="1175" y="722" width="190" height="42" rx="21" ry="21" class="action"/>
  <text x="1270" y="740" text-anchor="middle" class="t">Cerrar sesión</text>
  <text x="1270" y="754" text-anchor="middle" font-size="10" fill="#64748b">Firebase Auth</text>
  <line x1="1270" y1="764" x2="1270" y2="800" class="flow" marker-end="url(#arr)"/>

  <!-- Nodo final (diana) -->
  <circle cx="1270" cy="818" r="14" fill="none" stroke="#0f172a" stroke-width="1.8"/>
  <circle cx="1270" cy="818" r="8" fill="#0f172a"/>

  <!-- ============================== MERGE GLOBAL + BUCLE ============================== -->
  <!-- Merge global (recoge A, B, C, D) -->
  <polygon points="700,1260 725,1285 700,1310 675,1285" class="merge"/>

  <path d="M 180 1258 L 180 1285 L 675 1285" class="flow" marker-end="url(#arr)"/>
  <path d="M 470 1258 L 470 1285" class="flow"/>
  <path d="M 730 1258 L 730 1285" class="flow"/>
  <path d="M 1000 1258 L 1000 1285 L 725 1285" class="flow" marker-end="url(#arr)"/>

  <text x="550" y="1278" font-size="10" fill="#64748b" font-style="italic">merge global · retorno al dashboard</text>

  <!-- Bucle de retorno: desde merge global hacia merge de retorno (y=562) -->
  <path d="M 675 1285 L 40 1285 L 40 562 L 677 562" class="flowLoop" marker-end="url(#arrLoop)"/>
  <rect x="46" y="913" width="20" height="15" class="guard-bg"/>
  <text x="56" y="923" text-anchor="middle" class="guard" fill="#0f766e" font-style="italic">loop</text>

  <!-- ============================== LEYENDA ============================== -->
  <g transform="translate(40, 1370)">
    <rect x="0" y="0" width="1320" height="170" rx="10" ry="10" fill="#ffffff" stroke="#e2e8f0" stroke-width="1"/>
    <text x="20" y="26" font-size="14" font-weight="700" fill="#0f172a">Leyenda — notación UML de actividades</text>

    <!-- Fila 1 -->
    <circle cx="40" cy="60" r="7" fill="#0f172a"/>
    <text x="58" y="64" class="t">Nodo inicial</text>

    <circle cx="200" cy="60" r="11" fill="none" stroke="#0f172a" stroke-width="1.6"/>
    <circle cx="200" cy="60" r="6" fill="#0f172a"/>
    <text x="220" y="64" class="t">Nodo final</text>

    <rect x="330" y="48" width="90" height="26" rx="13" ry="13" class="action"/>
    <text x="375" y="65" text-anchor="middle" class="t">Acción</text>
    <text x="430" y="64" class="t">— actividad ejecutada</text>

    <polygon points="620,48 660,63 620,78 580,63" class="decision"/>
    <text x="620" y="67" text-anchor="middle" class="td">Decisión</text>
    <text x="670" y="64" class="t">— bifurca según guarda</text>

    <polygon points="900,52 917,63 900,74 883,63" class="merge"/>
    <text x="928" y="67" class="t">Merge — reúne flujos en uno</text>

    <!-- Fila 2 -->
    <line x1="20" y1="110" x2="100" y2="110" class="flow" marker-end="url(#arr)"/>
    <text x="110" y="114" class="t">Flujo de control</text>

    <line x1="280" y1="110" x2="360" y2="110" class="flowLoop" marker-end="url(#arrLoop)"/>
    <text x="370" y="114" class="t">Bucle de retorno al dashboard</text>

    <rect x="625" y="102" width="55" height="16" class="guard-bg" stroke="#cbd5e1"/>
    <text x="652" y="114" text-anchor="middle" class="guard">[guarda]</text>
    <text x="690" y="114" class="t">Condición sobre un flujo saliente de una decisión</text>

    <!-- Fila 3: nota -->
    <text x="20" y="148" font-size="11" fill="#475569" font-style="italic">Persistencia: cada acción que modifica datos guarda primero en local (ORMLite) y después sincroniza con Firebase cuando hay conexión.</text>
    <text x="20" y="164" font-size="11" fill="#475569" font-style="italic">El cliente sólo necesita red para autenticarse, buscar alimentos en la API y sincronizar; el resto funciona en modo offline.</text>
  </g>
</svg>
